<?xml version="1.0" encoding="UTF-8"?>
<svg height="128px" viewBox="0 0 128 128" width="128px" xmlns="http://www.w3.org/2000/svg" xmlns:xlink="http://www.w3.org/1999/xlink">
    <linearGradient id="a" gradientUnits="userSpaceOnUse">
        <stop offset="0" stop-color="#ed333b"/>
        <stop offset="1" stop-color="#e01b24"/>
    </linearGradient>
    <radialGradient id="b" cx="12.5" cy="12.5" gradientTransform="matrix(4.860836 0.00000008 0 4.874625 -25.760473 -25.86733)" r="7.5" xlink:href="#a"/>
    <radialGradient id="c" cx="12.5" cy="12.5" gradientTransform="matrix(4.860836 0.00000008 0 4.874625 -25.76047 23.327845)" r="7.5" xlink:href="#a"/>
    <radialGradient id="d" cx="12.5" cy="12.5" gradientTransform="matrix(4.860836 0.00000008 0 4.874625 23.239528 -25.86733)" r="7.5" xlink:href="#a"/>
    <g fill="#c01c28">
        <path d="m 22.238281 62.625 l -6.71875 -6.75 l 8.480469 -6.875 l 10 8 z m 0 0"/>
        <path d="m 55.085938 14.765625 l 7.996093 8.644531 l -3.703125 3.175782 l -9.378906 -7.585938 z m 0 0"/>
        <path d="m 26.960938 21.804688 h 32.078124 c 3.222657 0 5.835938 2.578124 5.835938 5.761718 v 31.675782 c 0 3.179687 -2.613281 5.757812 -5.835938 5.757812 h -32.078124 c -3.222657 0 -5.835938 -2.578125 -5.835938 -5.757812 v -31.675782 c 0 -3.183594 2.613281 -5.761718 5.835938 -5.761718 z m 0 0"/>
    </g>
    <path d="m 18.960938 13.128906 h 32.078124 c 3.222657 0 5.835938 2.621094 5.835938 5.851563 v 32.171875 c 0 3.230468 -2.613281 5.847656 -5.835938 5.847656 h -32.078124 c -3.222657 0 -5.835938 -2.617188 -5.835938 -5.847656 v -32.171875 c 0 -3.230469 2.613281 -5.851563 5.835938 -5.851563 z m 0 0" fill="url(#b)"/>
    <path d="m 22.238281 111.820312 l -6.71875 -6.75 l 8.480469 -6.875 l 10 8 z m 0 0" fill="#c01c28"/>
    <path d="m 55.085938 63.960938 l 7.996093 8.644531 l -3.703125 3.175781 l -9.378906 -7.585938 z m 0 0" fill="#c01c28"/>
    <path d="m 26.960938 71 h 32.078124 c 3.222657 0 5.835938 2.578125 5.835938 5.761719 v 31.675781 c 0 3.179688 -2.613281 5.757812 -5.835938 5.757812 h -32.078124 c -3.222657 0 -5.835938 -2.578124 -5.835938 -5.757812 v -31.675781 c 0 -3.183594 2.613281 -5.761719 5.835938 -5.761719 z m 0 0" fill="#c01c28"/>
    <path d="m 18.960938 62.324219 h 32.078124 c 3.222657 0 5.835938 2.621093 5.835938 5.851562 v 32.171875 c 0 3.230469 -2.613281 5.847656 -5.835938 5.847656 h -32.078124 c -3.222657 0 -5.835938 -2.617187 -5.835938 -5.847656 v -32.171875 c 0 -3.230469 2.613281 -5.851562 5.835938 -5.851562 z m 0 0" fill="url(#c)"/>
    <path d="m 71.238281 62.625 l -6.71875 -6.75 l 8.480469 -6.875 l 10 8 z m 0 0" fill="#c01c28"/>
    <path d="m 104.085938 14.765625 l 7.996093 8.644531 l -3.703125 3.175782 l -9.378906 -7.585938 z m 0 0" fill="#c01c28"/>
    <path d="m 75.960938 21.804688 h 32.078124 c 3.222657 0 5.835938 2.578124 5.835938 5.761718 v 31.675782 c 0 3.179687 -2.613281 5.757812 -5.835938 5.757812 h -32.078124 c -3.222657 0 -5.835938 -2.578125 -5.835938 -5.757812 v -31.675782 c 0 -3.183594 2.613281 -5.761718 5.835938 -5.761718 z m 0 0" fill="#c01c28"/>
    <path d="m 67.960938 13.128906 h 32.078124 c 3.222657 0 5.835938 2.621094 5.835938 5.851563 v 32.171875 c 0 3.230468 -2.613281 5.847656 -5.835938 5.847656 h -32.078124 c -3.222657 0 -5.835938 -2.617188 -5.835938 -5.847656 v -32.171875 c 0 -3.230469 2.613281 -5.851563 5.835938 -5.851563 z m 0 0" fill="url(#d)"/>
    <path d="m 21.5 86 h 29 l -14.5 14 z m 0 0" fill="#a51d2d"/>
    <path d="m 28.75 72 h 14.5 v 15.75 h -14.5 z m 0 0" fill="#a51d2d"/>
</svg>
