<?xml version="1.0" encoding="UTF-8"?>
<svg height="16px" viewBox="0 0 16 16" width="16px" xmlns="http://www.w3.org/2000/svg">
    <g fill="#ff0057">
        <path d="m 1.996094 1 h 4.007812 c 0.550782 0 0.996094 0.449219 0.996094 1 v 4 c 0 0.554688 -0.445312 1 -0.996094 1 h -4.007812 c -0.550782 0 -0.996094 -0.445312 -0.996094 -1 v -4 c 0 -0.550781 0.445312 -1 0.996094 -1 z m 0 0"/>
        <path d="m 9.996094 1 h 4.007812 c 0.550782 0 0.996094 0.449219 0.996094 1 v 4 c 0 0.554688 -0.445312 1 -0.996094 1 h -4.007812 c -0.550782 0 -0.996094 -0.445312 -0.996094 -1 v -4 c 0 -0.550781 0.445312 -1 0.996094 -1 z m 0 0"/>
        <path d="m 1.996094 9 h 4.007812 c 0.550782 0 0.996094 0.449219 0.996094 1 v 4 c 0 0.554688 -0.445312 1 -0.996094 1 h -4.007812 c -0.550782 0 -0.996094 -0.445312 -0.996094 -1 v -4 c 0 -0.550781 0.445312 -1 0.996094 -1 z m 0 0"/>
    </g>
</svg>
